<!--
  CHANGELOG (2026-06-07):
  - Add the Android Stay Connected icon for the iOS home tile.
-->
<svg xmlns="http://www.w3.org/2000/svg" viewBox="0 0 960 960">
  <path fill="#fff" d="M40 920l78-268a407 407 0 0 1-38-172c0-111 39-205 117-283S369 80 480 80s205 39 283 117 117 172 117 283-39 205-117 283-172 117-283 117a407 407 0 0 1-172-38L40 920Zm118-118 128-38c10-3 19-4 28-3s19 3 28 7a304 304 0 0 0 138 32c89 0 165-31 227-93s93-138 93-227-31-165-93-227-138-93-227-93-165 31-227 93-93 138-93 227a304 304 0 0 0 32 138c5 9 7 18 7 28s-1 19-4 28l-38 128Zm282-162h80V520h120v-80H520V320h-80v120H320v80h120v120Z"/>
</svg>
