<!--
  CHANGELOG (2026-06-05):
  - Add Android-derived home button icon for the testing App.
-->
<svg xmlns="http://www.w3.org/2000/svg" viewBox="0 0 24 24" width="24" height="24" aria-hidden="true">
  <path d="M4,5.5C4,4.67 4.67,4 5.5,4H15.5C16.33,4 17,4.67 17,5.5V13.5C17,14.33 16.33,15 15.5,15H13V17H15V19H6V17H8V15H5.5C4.67,15 4,14.33 4,13.5V5.5ZM6,6V13H15V6H6ZM7.25,10.5H8.9L10.05,8.2C10.22,7.86 10.57,7.65 10.95,7.65C11.33,7.65 11.68,7.87 11.85,8.21L12.52,9.55H13.75V11.05H12.05C11.67,11.05 11.32,10.83 11.15,10.49L10.96,10.11L10.43,11.17C10.26,11.51 9.91,11.73 9.53,11.73H7.25V10.5ZM18.5,8H20C20.55,8 21,8.45 21,9V12C21,12.55 20.55,13 20,13H18.5V11.4H19.4V9.6H18.5V8ZM11.5,15H9.5V17H11.5V15Z" fill="#fff"/>
</svg>
