<!--
  CHANGELOG (2026-06-05):
  - Add Android-derived home button icon for the testing App.
-->
<svg xmlns="http://www.w3.org/2000/svg" viewBox="0 0 960 960" width="24" height="24" aria-hidden="true">
  <path d="M360,520L360,280L360,280Q260,280 190,350Q120,420 120,520L120,520L360,520ZM520,680L520,280L440,280L440,600L120,600L120,680Q120,680 120,680Q120,680 120,680L520,680ZM600,552L840,528L840,480L600,480L600,552ZM520,880L120,880L120,800L520,800L520,880ZM600,760L120,760Q87,760 63.5,736.5Q40,713 40,680L40,520Q40,386 133,293Q226,200 360,200L600,200L600,400L800,400L840,320L920,320L920,600L600,632L600,760ZM760,160L120,160L120,80L760,80L760,160ZM600,552L600,480L600,480L600,552ZM520,680L520,680Q520,680 520,680Q520,680 520,680L520,680L520,680L520,680L520,680Z" fill="#fff"/>
</svg>
